<svg xmlns="http://www.w3.org/2000/svg" xmlns:xlink="http://www.w3.org/1999/xlink" width="500" zoomAndPan="magnify" viewBox="0 0 375 374.999991" height="500" preserveAspectRatio="xMidYMid meet" version="1.0"><defs><clipPath id="cb8ece72eb"><path d="M 0 1.023438 L 279 1.023438 L 279 280 L 0 280 Z M 0 1.023438 " clip-rule="nonzero"/></clipPath><clipPath id="619886964e"><path d="M 186.207031 0.980469 C 91.046875 0.980469 96.988281 42.246094 96.988281 42.246094 L 97.09375 85 L 187.894531 85 L 187.894531 97.835938 L 61.027344 97.835938 C 61.027344 97.835938 0.136719 90.929688 0.136719 186.941406 C 0.136719 282.957031 53.285156 279.554688 53.285156 279.554688 L 85 279.554688 L 85 234.992188 C 85 234.992188 83.292969 181.847656 137.300781 181.847656 L 227.363281 181.847656 C 227.363281 181.847656 277.957031 182.667969 277.957031 132.945312 L 277.957031 50.734375 C 277.957031 50.734375 285.648438 0.980469 186.207031 0.980469 L 186.207031 0.984375 Z M 136.132812 29.730469 C 145.167969 29.730469 152.464844 37.03125 152.464844 46.066406 C 152.464844 55.101562 145.167969 62.402344 136.132812 62.402344 C 127.097656 62.402344 119.796875 55.101562 119.796875 46.066406 C 119.796875 37.03125 127.097656 29.730469 136.132812 29.730469 Z M 136.132812 29.730469 " clip-rule="nonzero"/></clipPath><clipPath id="597396b537"><path d="M 97 95 L 375 95 L 375 373.773438 L 97 373.773438 Z M 97 95 " clip-rule="nonzero"/></clipPath><clipPath id="192022bbc0"><path d="M 188.910156 373.871094 C 284.0625 373.871094 278.117188 332.597656 278.117188 332.597656 L 278.015625 289.84375 L 187.207031 289.84375 L 187.207031 277.015625 L 314.078125 277.015625 C 314.078125 277.015625 374.972656 283.914062 374.972656 187.910156 C 374.972656 91.890625 321.828125 95.296875 321.828125 95.296875 L 290.109375 95.296875 L 290.109375 139.847656 C 290.109375 139.847656 291.8125 193 237.8125 193 L 147.738281 193 C 147.738281 193 97.144531 192.179688 97.144531 241.90625 L 97.144531 324.113281 C 97.144531 324.113281 89.460938 373.871094 188.910156 373.871094 Z M 238.972656 345.117188 C 229.945312 345.117188 222.636719 337.808594 222.636719 328.78125 C 222.636719 319.738281 229.945312 312.445312 238.972656 312.445312 C 248.015625 312.445312 255.308594 319.738281 255.308594 328.78125 C 255.308594 337.808594 248.015625 345.117188 238.972656 345.117188 Z M 238.972656 345.117188 " clip-rule="nonzero"/></clipPath></defs><g clip-path="url(#cb8ece72eb)"><g clip-path="url(#619886964e)"><path fill="#fea7b4" d="M 0.136719 1.023438 L 0.136719 282.957031 L 285.648438 282.957031 L 285.648438 1.023438 Z M 0.136719 1.023438 " fill-opacity="1" fill-rule="nonzero"/></g></g><g clip-path="url(#597396b537)"><g clip-path="url(#192022bbc0)"><path fill="#fea7b4" d="M 89.460938 91.890625 L 89.460938 373.773438 L 374.972656 373.773438 L 374.972656 91.890625 Z M 89.460938 91.890625 " fill-opacity="1" fill-rule="nonzero"/></g></g></svg>