<svg xmlns="http://www.w3.org/2000/svg" xmlns:xlink="http://www.w3.org/1999/xlink" width="500" zoomAndPan="magnify" viewBox="0 0 375 374.999991" height="500" preserveAspectRatio="xMidYMid meet" version="1.0"><defs><clipPath id="7e90965e8b"><path d="M 0 133.359375 L 375 133.359375 L 375 241.359375 L 0 241.359375 Z M 0 133.359375 " clip-rule="nonzero"/></clipPath></defs><g clip-path="url(#7e90965e8b)"><path fill="#fea7b4" d="M 3.015625 217.785156 L 3.015625 176.179688 L 54.960938 176.179688 L 54.960938 173.746094 L 3.015625 173.746094 L 3.015625 135.792969 L 58.246094 135.792969 L 58.246094 133.359375 L 0.582031 133.359375 L 0.582031 220.21875 L 58.730469 220.21875 L 58.730469 217.785156 Z M 105.570312 157.6875 L 84.039062 186.035156 L 62.992188 157.6875 L 59.828125 157.6875 L 82.578125 187.859375 L 57.636719 220.21875 L 60.558594 220.21875 L 84.039062 189.683594 L 107.636719 220.21875 L 110.675781 220.21875 L 85.617188 187.859375 L 108.492188 157.6875 Z M 117.976562 241.632812 L 117.976562 202.703125 L 118.21875 202.703125 C 119.679688 208.375 122.5625 212.941406 126.855469 216.386719 C 131.15625 219.832031 136.632812 221.554688 143.285156 221.554688 C 147.578125 221.554688 151.386719 220.6875 154.71875 218.941406 C 158.039062 217.195312 160.820312 214.824219 163.050781 211.828125 C 165.28125 208.828125 166.984375 205.339844 168.160156 201.363281 C 169.335938 197.390625 169.917969 193.214844 169.917969 188.832031 C 169.917969 184.128906 169.3125 179.792969 168.101562 175.816406 C 166.882812 171.84375 165.113281 168.394531 162.808594 165.476562 C 160.492188 162.558594 157.695312 160.285156 154.410156 158.664062 C 151.125 157.042969 147.417969 156.230469 143.285156 156.230469 C 140.113281 156.230469 137.179688 156.699219 134.464844 157.628906 C 131.746094 158.5625 129.332031 159.878906 127.21875 161.585938 C 125.117188 163.289062 123.292969 165.292969 121.75 167.605469 C 120.210938 169.917969 119.027344 172.453125 118.21875 175.210938 L 117.976562 175.210938 L 117.976562 157.691406 L 115.546875 157.691406 L 115.546875 241.636719 L 117.976562 241.636719 Z M 143.285156 219.25 C 135.660156 219.25 129.535156 216.632812 124.914062 211.398438 C 120.292969 206.167969 117.976562 198.648438 117.976562 188.832031 C 117.976562 184.777344 118.546875 180.925781 119.679688 177.277344 C 120.816406 173.628906 122.460938 170.425781 124.605469 167.667969 C 126.753906 164.910156 129.410156 162.71875 132.574219 161.097656 C 135.742188 159.476562 139.304688 158.664062 143.285156 158.664062 C 147.335938 158.664062 150.882812 159.476562 153.921875 161.097656 C 156.964844 162.71875 159.476562 164.929688 161.464844 167.726562 C 163.457031 170.527344 164.953125 173.730469 165.96875 177.335938 C 166.984375 180.945312 167.488281 184.777344 167.488281 188.832031 C 167.488281 192.484375 167.019531 196.113281 166.09375 199.722656 C 165.160156 203.332031 163.71875 206.574219 161.769531 209.457031 C 159.828125 212.332031 157.332031 214.683594 154.285156 216.511719 C 151.25 218.335938 147.578125 219.25 143.285156 219.25 Z M 183.304688 220.21875 L 183.304688 184.820312 C 183.304688 181.414062 183.792969 178.089844 184.761719 174.84375 C 185.734375 171.601562 187.238281 168.742188 189.269531 166.269531 C 191.292969 163.792969 193.867188 161.847656 196.992188 160.429688 C 200.109375 159.007812 203.820312 158.421875 208.121094 158.664062 L 208.121094 156.230469 C 204.390625 156.148438 201.125 156.554688 198.328125 157.449219 C 195.535156 158.339844 193.117188 159.554688 191.09375 161.097656 C 189.0625 162.636719 187.441406 164.441406 186.222656 166.511719 C 185.003906 168.578125 184.113281 170.789062 183.550781 173.140625 L 183.304688 173.140625 L 183.304688 157.691406 L 180.871094 157.691406 L 180.871094 220.21875 Z M 211.164062 189.441406 L 263.472656 189.441406 C 263.632812 185.144531 263.210938 181.007812 262.195312 177.035156 C 261.179688 173.058594 259.558594 169.53125 257.332031 166.449219 C 255.097656 163.367188 252.222656 160.894531 248.695312 159.027344 C 245.160156 157.164062 240.96875 156.230469 236.101562 156.230469 C 232.617188 156.230469 229.207031 156.960938 225.886719 158.421875 C 222.554688 159.882812 219.636719 162.007812 217.125 164.808594 C 214.613281 167.605469 212.582031 171.03125 211.042969 175.085938 C 209.5 179.144531 208.726562 183.765625 208.726562 188.957031 C 208.726562 193.578125 209.261719 197.898438 210.3125 201.910156 C 211.363281 205.925781 212.992188 209.414062 215.175781 212.371094 C 217.363281 215.335938 220.183594 217.628906 223.628906 219.25 C 227.074219 220.871094 231.238281 221.644531 236.101562 221.554688 C 243.242188 221.554688 249.242188 219.546875 254.105469 215.539062 C 258.96875 211.523438 261.851562 205.867188 262.742188 198.566406 L 260.3125 198.566406 C 259.253906 205.460938 256.558594 210.632812 252.222656 214.078125 C 247.886719 217.523438 242.429688 219.25 235.859375 219.25 C 231.398438 219.25 227.625 218.472656 224.542969 216.933594 C 221.460938 215.394531 218.949219 213.28125 217 210.609375 C 215.058594 207.929688 213.617188 204.789062 212.683594 201.179688 C 211.75 197.574219 211.246094 193.660156 211.164062 189.441406 Z M 261.042969 187.007812 L 211.164062 187.007812 C 211.40625 182.628906 212.21875 178.695312 213.597656 175.210938 C 214.976562 171.722656 216.78125 168.742188 219.007812 166.269531 C 221.242188 163.792969 223.832031 161.910156 226.796875 160.609375 C 229.753906 159.3125 232.9375 158.664062 236.339844 158.664062 C 240.402344 158.664062 243.972656 159.414062 247.050781 160.914062 C 250.132812 162.414062 252.703125 164.464844 254.777344 167.058594 C 256.84375 169.652344 258.40625 172.675781 259.457031 176.121094 C 260.515625 179.566406 261.042969 183.199219 261.042969 187.007812 Z M 313.957031 176.183594 L 316.394531 176.183594 C 316.394531 169.207031 314.363281 164.140625 310.3125 160.976562 C 306.253906 157.8125 300.742188 156.230469 293.769531 156.230469 C 289.867188 156.230469 286.589844 156.71875 283.910156 157.691406 C 281.230469 158.664062 279.046875 159.921875 277.339844 161.460938 C 275.636719 163.003906 274.417969 164.707031 273.6875 166.570312 C 272.964844 168.4375 272.601562 170.222656 272.601562 171.925781 C 272.601562 175.332031 273.207031 178.046875 274.417969 180.074219 C 275.636719 182.101562 277.542969 183.683594 280.144531 184.820312 C 281.925781 185.628906 283.953125 186.359375 286.226562 187.007812 C 288.496094 187.660156 291.132812 188.347656 294.132812 189.078125 C 296.804688 189.726562 299.441406 190.375 302.039062 191.023438 C 304.632812 191.671875 306.925781 192.542969 308.910156 193.640625 C 310.898438 194.734375 312.519531 196.132812 313.773438 197.835938 C 315.035156 199.539062 315.664062 201.769531 315.664062 204.527344 C 315.664062 207.199219 315.035156 209.472656 313.773438 211.339844 C 312.519531 213.203125 310.917969 214.730469 308.96875 215.902344 C 307.027344 217.078125 304.859375 217.925781 302.464844 218.460938 C 300.070312 218.984375 297.738281 219.25 295.46875 219.25 C 288.085938 219.25 282.429688 217.605469 278.5 214.320312 C 274.566406 211.035156 272.601562 205.867188 272.601562 198.808594 L 270.160156 198.808594 C 270.160156 206.675781 272.292969 212.4375 276.550781 216.085938 C 280.808594 219.730469 287.117188 221.554688 295.46875 221.554688 C 298.140625 221.554688 300.84375 221.257812 303.558594 220.644531 C 306.273438 220.035156 308.707031 219.042969 310.859375 217.664062 C 313.007812 216.285156 314.753906 214.503906 316.089844 212.3125 C 317.425781 210.121094 318.097656 207.449219 318.097656 204.285156 C 318.097656 201.28125 317.503906 198.851562 316.328125 196.984375 C 315.152344 195.121094 313.613281 193.578125 311.707031 192.363281 C 309.800781 191.144531 307.65625 190.191406 305.261719 189.503906 C 302.867188 188.8125 300.457031 188.144531 298.023438 187.496094 C 294.613281 186.605469 291.636719 185.832031 289.078125 185.183594 C 286.523438 184.535156 284.152344 183.765625 281.960938 182.871094 C 279.859375 181.980469 278.171875 180.703125 276.914062 179.042969 C 275.660156 177.378906 275.03125 175.007812 275.03125 171.925781 C 275.03125 171.355469 275.191406 170.34375 275.515625 168.882812 C 275.84375 167.421875 276.609375 165.941406 277.828125 164.441406 C 279.046875 162.941406 280.910156 161.605469 283.421875 160.429688 C 285.941406 159.253906 289.386719 158.664062 293.769531 158.664062 C 296.769531 158.664062 299.5 158.988281 301.972656 159.636719 C 304.449219 160.285156 306.582031 161.320312 308.363281 162.738281 C 310.144531 164.160156 311.523438 165.964844 312.496094 168.152344 C 313.472656 170.34375 313.957031 173.019531 313.957031 176.183594 Z M 370.289062 176.183594 L 372.71875 176.183594 C 372.71875 169.207031 370.6875 164.140625 366.636719 160.976562 C 362.578125 157.8125 357.0625 156.230469 350.089844 156.230469 C 346.199219 156.230469 342.914062 156.71875 340.234375 157.691406 C 337.5625 158.664062 335.371094 159.921875 333.664062 161.460938 C 331.960938 163.003906 330.75 164.707031 330.019531 166.570312 C 329.289062 168.4375 328.925781 170.222656 328.925781 171.925781 C 328.925781 175.332031 329.53125 178.046875 330.75 180.074219 C 331.960938 182.101562 333.867188 183.683594 336.464844 184.820312 C 338.25 185.628906 340.277344 186.359375 342.550781 187.007812 C 344.820312 187.660156 347.457031 188.347656 350.457031 189.078125 C 353.128906 189.726562 355.765625 190.375 358.363281 191.023438 C 360.957031 191.671875 363.25 192.542969 365.234375 193.640625 C 367.21875 194.734375 368.839844 196.132812 370.105469 197.835938 C 371.359375 199.539062 371.988281 201.769531 371.988281 204.527344 C 371.988281 207.199219 371.359375 209.472656 370.105469 211.339844 C 368.839844 213.203125 367.242188 214.730469 365.292969 215.902344 C 363.351562 217.078125 361.183594 217.925781 358.789062 218.460938 C 356.390625 218.984375 354.0625 219.25 351.792969 219.25 C 344.410156 219.25 338.753906 217.605469 334.824219 214.320312 C 330.886719 211.035156 328.925781 205.867188 328.925781 198.808594 L 326.484375 198.808594 C 326.484375 206.675781 328.617188 212.4375 332.875 216.085938 C 337.132812 219.730469 343.441406 221.554688 351.792969 221.554688 C 354.472656 221.554688 357.167969 221.257812 359.882812 220.644531 C 362.597656 220.035156 365.03125 219.042969 367.183594 217.664062 C 369.332031 216.285156 371.074219 214.503906 372.410156 212.3125 C 373.75 210.121094 374.421875 207.449219 374.421875 204.285156 C 374.421875 201.28125 373.828125 198.851562 372.652344 196.984375 C 371.476562 195.121094 369.9375 193.578125 368.03125 192.363281 C 366.125 191.144531 363.980469 190.191406 361.582031 189.503906 C 359.195312 188.8125 356.78125 188.144531 354.347656 187.496094 C 350.9375 186.605469 347.960938 185.832031 345.402344 185.183594 C 342.847656 184.535156 340.484375 183.765625 338.292969 182.871094 C 336.183594 181.980469 334.496094 180.703125 333.238281 179.042969 C 331.984375 177.378906 331.355469 175.007812 331.355469 171.925781 C 331.355469 171.355469 331.515625 170.34375 331.84375 168.882812 C 332.167969 167.421875 332.941406 165.941406 334.152344 164.441406 C 335.371094 162.941406 337.234375 161.605469 339.753906 160.429688 C 342.265625 159.253906 345.710938 158.664062 350.089844 158.664062 C 353.09375 158.664062 355.832031 158.988281 358.296875 159.636719 C 360.773438 160.285156 362.90625 161.320312 364.6875 162.738281 C 366.46875 164.160156 367.847656 165.964844 368.828125 168.152344 C 369.796875 170.34375 370.289062 173.019531 370.289062 176.183594 Z M 370.289062 176.183594 " fill-opacity="1" fill-rule="nonzero"/></g></svg>