<svg xmlns="http://www.w3.org/2000/svg" xmlns:xlink="http://www.w3.org/1999/xlink" width="500" zoomAndPan="magnify" viewBox="0 0 375 374.999991" height="500" preserveAspectRatio="xMidYMid meet" version="1.0"><path fill="#fea7b4" d="M 308.191406 128.84375 C 304.203125 127.476562 300.179688 126.207031 296.125 125.042969 C 296.804688 122.261719 297.433594 119.511719 297.988281 116.8125 C 307.125 72.472656 301.152344 36.753906 280.757812 24.992188 C 261.203125 13.71875 229.222656 25.476562 196.925781 53.585938 C 193.742188 56.359375 190.628906 59.214844 187.589844 62.148438 C 185.558594 60.195312 183.488281 58.285156 181.382812 56.410156 C 147.53125 26.355469 113.601562 13.691406 93.230469 25.484375 C 73.695312 36.792969 67.910156 70.371094 76.132812 112.390625 C 76.949219 116.554688 77.875 120.695312 78.902344 124.808594 C 74.097656 126.171875 69.464844 127.625 65.03125 129.171875 C 25.34375 143.007812 0 164.691406 0 187.183594 C 0 210.414062 27.207031 233.714844 68.542969 247.84375 C 71.894531 248.984375 75.273438 250.039062 78.675781 251.011719 C 77.570312 255.445312 76.589844 259.90625 75.734375 264.390625 C 67.894531 305.683594 74.015625 338.46875 93.5 349.707031 C 113.625 361.3125 147.398438 349.382812 180.289062 320.632812 C 182.953125 318.296875 185.5625 315.894531 188.109375 313.425781 C 191.402344 316.601562 194.78125 319.683594 198.242188 322.671875 C 230.101562 350.082031 261.5625 361.152344 281.027344 349.882812 C 301.132812 338.246094 307.667969 303.023438 299.183594 260.175781 C 298.515625 256.816406 297.765625 253.476562 296.9375 250.15625 C 299.308594 249.453125 301.636719 248.730469 303.90625 247.976562 C 346.878906 233.742188 374.835938 210.722656 374.835938 187.183594 C 374.835938 164.609375 348.675781 142.78125 308.191406 128.84375 Z M 298.871094 232.78125 C 296.820312 233.457031 294.71875 234.113281 292.574219 234.75 C 287.832031 219.730469 281.429688 203.761719 273.59375 187.261719 C 281.070312 171.15625 287.226562 155.390625 291.835938 140.46875 C 295.671875 141.578125 299.394531 142.75 302.980469 143.984375 C 337.667969 155.925781 358.824219 173.582031 358.824219 187.183594 C 358.824219 201.675781 335.972656 220.484375 298.871094 232.78125 Z M 283.476562 263.285156 C 287.226562 282.230469 287.761719 299.363281 285.277344 312.757812 C 283.046875 324.789062 278.558594 332.8125 273.003906 336.027344 C 261.191406 342.863281 235.929688 333.976562 208.6875 310.53125 C 205.464844 307.753906 202.324219 304.890625 199.261719 301.9375 C 209.824219 290.386719 220.378906 276.957031 230.683594 262.042969 C 248.800781 260.4375 265.921875 257.804688 281.445312 254.21875 C 282.195312 257.222656 282.871094 260.246094 283.476562 263.285156 Z M 127.789062 334.84375 C 116.25 338.921875 107.058594 339.039062 101.5 335.832031 C 89.675781 329.015625 84.761719 302.691406 91.464844 267.378906 C 92.261719 263.207031 93.175781 259.058594 94.203125 254.933594 C 109.554688 258.332031 126.550781 260.773438 144.714844 262.246094 C 155.085938 276.839844 165.949219 290.253906 176.890625 302 C 174.566406 304.25 172.183594 306.445312 169.75 308.578125 C 155.207031 321.289062 140.632812 330.308594 127.789062 334.84375 Z M 73.722656 232.691406 C 55.445312 226.441406 40.351562 218.324219 30.003906 209.464844 C 20.707031 201.503906 16.015625 193.597656 16.015625 187.183594 C 16.015625 173.535156 36.363281 156.125 70.300781 144.292969 C 74.417969 142.859375 78.730469 141.503906 83.203125 140.234375 C 87.894531 155.488281 94.046875 171.441406 101.472656 187.574219 C 93.949219 203.945312 87.710938 220.152344 82.972656 235.589844 C 79.867188 234.699219 76.78125 233.730469 73.722656 232.691406 Z M 91.847656 109.316406 C 84.800781 73.316406 89.480469 46.160156 101.253906 39.34375 C 113.792969 32.082031 141.523438 42.433594 170.75 68.386719 C 172.65625 70.082031 174.53125 71.8125 176.375 73.578125 C 165.484375 85.269531 154.722656 98.585938 144.441406 113.09375 C 126.8125 114.726562 109.9375 117.351562 94.421875 120.867188 C 93.46875 117.039062 92.609375 113.1875 91.847656 109.316406 Z M 253.535156 149.242188 C 249.871094 142.914062 246.070312 136.664062 242.136719 130.496094 C 254.097656 132.007812 265.554688 134.015625 276.316406 136.46875 C 273.085938 146.824219 269.058594 157.648438 264.320312 168.75 C 260.855469 162.175781 257.257812 155.671875 253.535156 149.242188 Z M 187.597656 85.019531 C 194.984375 93.023438 202.382812 101.957031 209.65625 111.648438 C 194.898438 110.953125 180.113281 110.949219 165.355469 111.640625 C 172.636719 102.035156 180.097656 93.113281 187.597656 85.019531 Z M 121.238281 149.351562 C 117.5625 155.730469 114.035156 162.191406 110.65625 168.734375 C 105.996094 157.675781 102.003906 146.800781 98.746094 136.300781 C 109.441406 133.90625 120.847656 131.953125 132.730469 130.464844 C 128.753906 136.671875 124.921875 142.96875 121.238281 149.351562 Z M 133.070312 245.039062 C 120.792969 243.671875 109.21875 241.816406 98.527344 239.488281 C 101.835938 228.796875 105.914062 217.691406 110.675781 206.394531 C 114.066406 212.945312 117.609375 219.410156 121.300781 225.792969 C 125.101562 232.351562 129.035156 238.777344 133.070312 245.039062 Z M 188.039062 290.476562 C 180.449219 282.289062 172.878906 273.230469 165.488281 263.484375 C 172.664062 263.765625 179.980469 263.910156 187.417969 263.910156 C 195.058594 263.910156 202.609375 263.738281 210.046875 263.40625 C 202.746094 273.328125 195.375 282.398438 188.039062 290.476562 Z M 264.46875 205.820312 C 269.480469 217.238281 273.703125 228.289062 277.054688 238.792969 C 266.1875 241.273438 254.453125 243.269531 242.089844 244.753906 C 246.050781 238.472656 249.890625 232.113281 253.597656 225.679688 C 257.367188 219.140625 260.992188 212.519531 264.46875 205.820312 Z M 239.726562 217.679688 C 234.050781 227.542969 228.050781 237.21875 221.746094 246.695312 C 210.320312 247.503906 198.871094 247.90625 187.417969 247.898438 C 175.753906 247.898438 164.40625 247.535156 153.480469 246.828125 C 147.007812 237.375 140.898438 227.683594 135.160156 217.769531 C 129.449219 207.90625 124.113281 197.832031 119.167969 187.566406 C 124.101562 177.296875 129.421875 167.21875 135.113281 157.347656 L 135.109375 157.351562 C 140.800781 147.480469 146.863281 137.828125 153.285156 128.417969 C 164.433594 127.574219 175.863281 127.132812 187.417969 127.132812 C 199.023438 127.132812 210.46875 127.578125 221.613281 128.425781 C 227.972656 137.824219 233.996094 147.441406 239.675781 157.265625 C 245.386719 167.113281 250.773438 177.140625 255.832031 187.339844 C 250.828125 197.640625 245.453125 207.761719 239.726562 217.679688 Z M 272.761719 38.867188 C 285.3125 46.105469 290.191406 75.296875 282.308594 113.578125 C 281.804688 116.019531 281.238281 118.507812 280.621094 121.03125 C 265.070312 117.441406 248.183594 114.773438 230.503906 113.113281 C 220.203125 98.445312 209.53125 85.109375 198.816406 73.566406 C 201.625 70.859375 204.5 68.226562 207.4375 65.660156 C 235.113281 41.578125 260.976562 32.070312 272.761719 38.867188 Z M 187.417969 153.710938 C 205.902344 153.710938 220.890625 168.699219 220.890625 187.183594 C 220.890625 205.671875 205.902344 220.65625 187.417969 220.65625 C 168.933594 220.65625 153.945312 205.671875 153.945312 187.183594 C 153.945312 168.699219 168.933594 153.710938 187.417969 153.710938 Z M 187.417969 153.710938 " fill-opacity="1" fill-rule="nonzero"/></svg>