<svg xmlns="http://www.w3.org/2000/svg" xmlns:xlink="http://www.w3.org/1999/xlink" width="500" zoomAndPan="magnify" viewBox="0 0 375 374.999991" height="500" preserveAspectRatio="xMidYMid meet" version="1.0"><path fill="#fea7b4" d="M 257.671875 68.347656 C 255.773438 68.347656 254.03125 69.867188 254.03125 71.984375 L 254.03125 138.46875 L 238.957031 129.679688 C 238.015625 129.125 236.953125 128.855469 235.886719 128.855469 C 234.824219 128.855469 233.757812 129.125 232.816406 129.679688 L 196.597656 150.804688 C 194.710938 151.890625 193.546875 153.90625 193.546875 156.070312 L 193.546875 198.363281 C 193.546875 200.539062 194.710938 202.542969 196.597656 203.632812 L 232.816406 224.753906 C 233.757812 225.3125 234.824219 225.582031 235.886719 225.582031 C 236.953125 225.582031 238.015625 225.3125 238.957031 224.753906 L 275.179688 203.632812 C 277.066406 202.542969 278.226562 200.527344 278.226562 198.363281 L 278.226562 83.230469 C 278.226562 81.078125 277.074219 79.097656 275.226562 78.011719 L 259.464844 68.84375 C 258.875 68.503906 258.277344 68.347656 257.671875 68.347656 Z M 139.113281 128.855469 C 138.050781 128.855469 136.992188 129.128906 136.042969 129.679688 L 99.820312 150.804688 C 97.933594 151.890625 96.773438 153.90625 96.773438 156.070312 L 96.773438 198.363281 C 96.773438 200.539062 97.933594 202.542969 99.820312 203.632812 L 136.042969 224.753906 C 137.941406 225.855469 140.285156 225.855469 142.183594 224.753906 L 178.402344 203.632812 C 180.289062 202.542969 181.453125 200.527344 181.453125 198.363281 L 181.453125 156.070312 C 181.453125 153.894531 180.289062 151.890625 178.402344 150.804688 L 142.183594 129.679688 C 141.234375 129.128906 140.175781 128.855469 139.113281 128.855469 Z M 332.660156 128.855469 C 331.597656 128.855469 330.535156 129.125 329.589844 129.679688 L 293.371094 150.804688 C 291.484375 151.890625 290.324219 153.90625 290.324219 156.070312 L 290.324219 198.363281 C 290.324219 200.539062 291.484375 202.542969 293.371094 203.632812 L 328.503906 224.871094 C 330.390625 226.023438 332.757812 226.03125 334.667969 224.917969 L 351.941406 214.878906 C 353.730469 213.851562 353.742188 211.253906 351.941406 210.199219 L 314.515625 188.15625 L 314.515625 166.445312 L 332.660156 155.882812 L 350.804688 166.445312 L 350.804688 181.566406 C 350.804688 183.585938 352.503906 183.894531 353.640625 183.21875 C 358.214844 180.535156 372 172.539062 372 172.539062 C 373.851562 171.464844 375 169.472656 375 167.316406 L 375 156.070312 C 375 153.894531 373.839844 151.890625 371.953125 150.804688 L 335.734375 129.679688 C 334.777344 129.125 333.726562 128.855469 332.660156 128.855469 Z M 42.339844 128.878906 C 41.273438 128.878906 40.210938 129.148438 39.265625 129.703125 L 3.046875 150.804688 C 1.160156 151.902344 0 153.917969 0 156.09375 L 0 210.082031 C 0 212.71875 2.851562 214.355469 5.128906 213.035156 L 21.191406 203.679688 C 23.042969 202.589844 24.195312 200.609375 24.195312 198.457031 L 24.195312 166.492188 L 42.339844 155.90625 L 60.484375 166.492188 L 60.484375 198.457031 C 60.484375 200.609375 61.632812 202.589844 63.484375 203.679688 L 79.550781 213.035156 C 81.824219 214.367188 84.675781 212.71875 84.675781 210.082031 L 84.675781 156.09375 C 84.675781 153.917969 83.515625 151.902344 81.628906 150.804688 L 45.410156 129.703125 C 44.464844 129.148438 43.402344 128.878906 42.339844 128.878906 Z M 235.886719 155.882812 L 254.03125 166.46875 L 254.03125 187.96875 L 235.886719 198.550781 L 217.742188 187.96875 L 217.742188 166.46875 Z M 332.660156 165.167969 L 322.289062 171.214844 L 322.289062 183.289062 L 332.660156 189.316406 L 343.035156 183.289062 L 343.035156 171.214844 Z M 186.367188 213.484375 C 185.121094 213.484375 183.863281 213.789062 182.773438 214.40625 L 148.753906 234.0625 C 146.515625 235.296875 145.160156 237.726562 145.160156 240.253906 L 145.160156 279.519531 C 145.160156 282.046875 146.574219 284.429688 148.753906 285.710938 L 157.707031 290.8125 C 162 292.929688 163.578125 292.941406 165.527344 292.941406 C 171.9375 292.941406 175.59375 289.105469 175.59375 282.332031 L 175.59375 243.539062 C 175.59375 242.945312 175.132812 242.519531 174.601562 242.519531 L 170.300781 242.519531 C 169.707031 242.519531 169.285156 243.003906 169.285156 243.539062 L 169.285156 282.332031 C 169.285156 285.273438 166.175781 288.285156 161.109375 285.757812 L 151.800781 280.394531 C 151.496094 280.214844 151.28125 279.847656 151.28125 279.496094 L 151.28125 240.230469 C 151.28125 239.878906 151.449219 239.464844 151.800781 239.285156 L 185.824219 219.675781 C 186.183594 219.492188 186.59375 219.492188 186.886719 219.675781 L 220.929688 239.285156 C 221.28125 239.464844 221.453125 239.816406 221.453125 240.230469 L 221.453125 279.496094 C 221.453125 279.90625 221.222656 280.261719 220.929688 280.441406 L 186.886719 300.121094 C 186.582031 300.304688 186.113281 300.304688 185.824219 300.121094 L 177.128906 294.949219 C 176.898438 294.828125 176.53125 294.757812 176.300781 294.878906 C 173.894531 296.292969 173.410156 296.476562 171.175781 297.242188 C 170.582031 297.421875 169.777344 297.785156 171.480469 298.730469 L 182.773438 305.4375 C 183.898438 306.03125 185.132812 306.382812 186.367188 306.382812 C 187.660156 306.382812 188.917969 306.03125 189.910156 305.390625 L 223.933594 285.710938 C 226.171875 284.476562 227.523438 282.046875 227.523438 279.519531 L 227.523438 240.253906 C 227.523438 237.726562 226.109375 235.359375 223.933594 234.0625 L 189.910156 214.40625 C 188.851562 213.789062 187.609375 213.484375 186.367188 213.484375 Z M 239.429688 231.605469 C 235.960938 231.605469 232.910156 234.414062 232.910156 238.125 C 232.910156 241.71875 235.839844 244.671875 239.429688 244.671875 C 243.023438 244.671875 245.953125 241.71875 245.953125 238.125 C 245.953125 234.414062 242.964844 231.546875 239.429688 231.605469 Z M 239.359375 232.644531 C 242.433594 232.644531 244.914062 235.066406 244.914062 238.125 C 244.914062 241.125 242.421875 243.605469 239.359375 243.679688 C 236.347656 243.679688 233.902344 241.1875 233.902344 238.125 C 233.902344 235.066406 236.359375 232.644531 239.359375 232.644531 Z M 236.972656 234.417969 L 236.972656 241.765625 L 238.367188 241.765625 L 238.367188 238.835938 L 239.667969 238.835938 C 240.199219 238.835938 240.324219 239.0625 240.445312 239.472656 C 240.445312 239.535156 240.671875 241.4375 240.730469 241.789062 L 242.242188 241.789062 C 242.074219 241.4375 241.949219 240.433594 241.886719 239.828125 C 241.71875 238.882812 241.664062 238.234375 240.660156 238.175781 C 241.191406 237.992188 242.078125 237.710938 242.078125 236.355469 C 242.078125 234.40625 240.386719 234.417969 239.5 234.417969 Z M 238.367188 235.597656 L 239.550781 235.597656 C 239.910156 235.597656 240.613281 235.585938 240.613281 236.589844 C 240.613281 237.003906 240.433594 237.667969 239.476562 237.65625 L 238.367188 237.65625 Z M 195.484375 241.601562 C 185.773438 241.601562 180.011719 245.738281 180.011719 252.5625 C 180.011719 260.039062 185.78125 262.039062 195.085938 262.980469 C 206.214844 264.09375 207.085938 265.695312 207.085938 267.871094 C 207.085938 271.695312 204.019531 273.28125 196.832031 273.28125 C 187.820312 273.28125 185.835938 271.050781 185.183594 266.574219 C 185.125 266.101562 184.699219 265.746094 184.167969 265.746094 L 179.75 265.746094 C 179.21875 265.746094 178.757812 266.167969 178.757812 266.761719 C 178.757812 272.472656 181.871094 279.308594 196.761719 279.308594 C 207.683594 279.296875 213.867188 275.0625 213.867188 267.636719 C 213.867188 260.28125 208.914062 258.324219 198.4375 256.910156 C 187.84375 255.496094 186.792969 254.78125 186.792969 252.304688 C 186.792969 250.246094 187.660156 247.554688 195.484375 247.554688 C 202.488281 247.554688 205.101562 249.085938 206.164062 253.792969 C 206.285156 254.261719 206.613281 254.546875 207.085938 254.546875 L 211.503906 254.546875 C 211.792969 254.546875 212.042969 254.433594 212.214844 254.265625 C 212.394531 254.035156 212.511719 253.796875 212.449219 253.507812 C 211.746094 245.378906 206.386719 241.601562 195.484375 241.601562 Z M 195.484375 241.601562 " fill-opacity="1" fill-rule="nonzero"/></svg>